<?xml version="1.0" encoding="UTF-8"?>
<svg xmlns="http://www.w3.org/2000/svg" xmlns:xlink="http://www.w3.org/1999/xlink" width="43pt" height="55pt" viewBox="0 0 43 55" version="1.1">
<g id="surface1">
<path style="fill-rule:evenodd;fill:rgb(100%,89.803922%,76.470588%);fill-opacity:1;stroke-width:6;stroke-linecap:butt;stroke-linejoin:miter;stroke:rgb(18.431373%,21.960784%,30.588235%);stroke-opacity:1;stroke-miterlimit:4;" d="M 27.164595 24.687335 C 27.404228 23.996388 27.490251 23.019103 26.05245 20.91514 C 22.298194 15.406241 14.279692 6.399037 12.424069 5.23501 C 9.849547 3.622801 8.31958 3.380036 6.722024 3.274215 C 4.663634 3.131046 3.176678 7.563064 3.238123 13.3832 C 3.305712 19.20956 4.82339 30.843607 6.81419 34.597127 C 8.81728 38.344423 12.639125 41.637313 13.923314 42.07927 C 14.783537 42.371833 16.104593 42.153966 17.898771 41.425671 " transform="matrix(0.635737,0,0,0.627536,0,0)"/>
<path style="fill-rule:evenodd;fill:rgb(100%,89.803922%,76.470588%);fill-opacity:1;stroke-width:6;stroke-linecap:butt;stroke-linejoin:miter;stroke:rgb(18.431373%,21.960784%,30.588235%);stroke-opacity:1;stroke-miterlimit:4;" d="M 39.514931 24.687335 C 39.275298 23.996388 39.189276 23.019103 40.627076 20.91514 C 44.387477 15.412466 52.399834 6.399037 54.255457 5.23501 C 56.82998 3.622801 58.366091 3.380036 59.957503 3.274215 C 62.022036 3.131046 63.496703 7.569289 63.441403 13.3832 C 63.379959 19.20956 61.856136 30.843607 59.859191 34.597127 C 57.856102 38.344423 54.046546 41.637313 52.756212 42.07927 C 51.902134 42.371833 50.581078 42.153966 48.7869 41.425671 " transform="matrix(0.635737,0,0,0.627536,0,0)"/>
<path style="fill-rule:evenodd;fill:rgb(89.411765%,67.058824%,38.431373%);fill-opacity:1;stroke-width:3.3;stroke-linecap:butt;stroke-linejoin:miter;stroke:rgb(18.039216%,18.039216%,18.039216%);stroke-opacity:1;stroke-miterlimit:4;" d="M 33.339763 83.77883 C 32.780619 83.77883 32.092441 83.679234 31.275229 83.467593 C 27.951084 82.627252 25.210661 79.203643 21.868083 74.983266 C 16.080015 67.706541 7.938624 46.044431 10.961691 33.694539 C 12.983214 25.409405 23.50865 19.81336 28.344329 18.705356 C 30.427296 18.22605 32.553274 18.076657 33.339763 18.076657 C 34.120108 18.076657 36.25223 18.22605 38.335198 18.705356 C 43.170876 19.81336 53.696312 25.409405 55.723979 33.694539 C 58.740902 46.044431 50.605656 67.706541 44.817588 74.983266 C 41.462721 79.203643 38.728442 82.627252 35.404297 83.467593 C 34.59323 83.679234 33.898908 83.785054 33.339763 83.785054 " transform="matrix(0.635737,0,0,0.627536,0,0)"/>
<path style=" stroke:none;fill-rule:evenodd;fill:rgb(100%,100%,100%);fill-opacity:1;" d="M 11.53125 41.558594 C 13.804688 40.390625 15.863281 38.027344 17.695312 34.472656 C 18.921875 32.105469 19.820312 24.394531 20.394531 11.34375 L 22 11.34375 C 22.574219 24.394531 23.472656 32.105469 24.695312 34.472656 C 26.53125 38.027344 28.585938 40.390625 30.855469 41.558594 C 27.378906 48.683594 24.15625 52.246094 21.195312 52.246094 C 18.234375 52.246094 15.015625 48.683594 11.53125 41.558594 Z M 11.53125 41.558594 "/>
<path style="fill:none;stroke-width:6;stroke-linecap:butt;stroke-linejoin:miter;stroke:rgb(18.431373%,21.960784%,30.588235%);stroke-opacity:1;stroke-miterlimit:4;" d="M 31.275229 83.467593 C 27.951084 82.627252 24.590072 79.427734 21.868083 74.983266 C 16.774337 66.710582 7.938624 46.044431 10.961691 33.694539 C 12.983214 25.409405 23.50865 19.81336 28.344329 18.705356 C 30.427296 18.22605 32.553274 18.076657 33.339763 18.076657 C 34.120108 18.076657 36.25223 18.22605 38.335198 18.705356 C 43.170876 19.81336 53.696312 25.409405 55.723979 33.694539 C 58.740902 46.044431 50.1141 66.542514 44.817588 74.983266 C 41.97271 79.51488 38.728442 82.627252 35.404297 83.467593 C 34.59323 83.679234 33.898908 83.785054 33.339763 83.785054 C 32.780619 83.785054 32.092441 83.679234 31.275229 83.467593 Z M 31.275229 83.467593 " transform="matrix(0.635737,0,0,0.627536,0,0)"/>
<path style=" stroke:none;fill-rule:evenodd;fill:rgb(18.431373%,21.960784%,30.588235%);fill-opacity:1;" d="M 21.195312 48.804688 C 21.949219 48.804688 21.949219 48.804688 22.890625 48.613281 C 23.832031 48.417969 25.34375 47.359375 25.804688 45.75 C 26.269531 44.136719 25.621094 43.117188 24.792969 42.453125 C 23.960938 41.78125 22.386719 41.558594 21.195312 41.558594 C 20.003906 41.558594 18.433594 41.78125 17.601562 42.453125 C 16.769531 43.117188 16.125 44.136719 16.585938 45.75 C 17.050781 47.359375 18.554688 48.417969 19.5 48.613281 C 20.441406 48.804688 20.441406 48.804688 21.195312 48.804688 "/>
<path style=" stroke:none;fill-rule:evenodd;fill:rgb(18.431373%,21.960784%,30.588235%);fill-opacity:1;" d="M 26.871094 29.394531 C 27.378906 28.023438 28.753906 27.261719 29.945312 27.691406 C 31.140625 28.125 31.699219 29.578125 31.191406 30.945312 C 30.691406 32.3125 29.316406 33.074219 28.117188 32.644531 C 26.925781 32.21875 26.367188 30.761719 26.871094 29.394531 Z M 26.871094 29.394531 "/>
<path style=" stroke:none;fill-rule:evenodd;fill:rgb(18.431373%,21.960784%,30.588235%);fill-opacity:1;" d="M 15.519531 29.390625 C 15.015625 28.023438 13.640625 27.261719 12.441406 27.691406 C 11.25 28.125 10.691406 29.578125 11.195312 30.945312 C 11.703125 32.3125 13.078125 33.074219 14.269531 32.644531 C 15.464844 32.21875 16.023438 30.761719 15.519531 29.390625 Z M 15.519531 29.390625 "/>
</g>
</svg>
